<svg width="657.9px" height="122px" xmlns="http://www.w3.org/2000/svg" viewBox="-78.94687499999998 14 657.89375 122" style="background: rgba(0, 0, 0, 0)" preserveAspectRatio="xMidYMid"><defs><linearGradient id="editing-gradient-gradient" x1="0" x2="1" y1="0.5" y2="0.5" gradientUnits="objectBoundingBox"><stop offset="0" stop-color="#0089ff"></stop><stop offset="1" stop-color="#ff00e6"></stop></linearGradient></defs><g><g transform="matrix(1.2,0,0,1.4,-25,157.4)"><path d="M -25.2 -41.1 L -39.1 -41.1 L -31 -83.4 L -16.9 -83.4 L -25.2 -41.1 Z M 30.6 -39.8 L 30.6 -39.8 L 30.6 -39.8 Q 22.8 -39.8 22.8 -45.9 L 22.8 -45.9 L 22.8 -45.9 Q 22.8 -48.5 23.9 -53.6 L 23.9 -53.6 L 23.9 -53.6 Q 25.1 -58.7 25.4 -60.7 L 25.4 -60.7 L 25.4 -60.7 Q 26.3 -65.4 26.3 -66.8 L 26.3 -66.8 L 26.3 -66.8 Q 26.3 -70.1 23.9 -70.1 L 23.9 -70.1 L 23.9 -70.1 Q 22.3 -70.1 20.8 -67.9 L 20.8 -67.9 L 20.8 -67.9 Q 19.2 -65.7 18.5 -61.3 L 18.5 -61.3 L 14.6 -41.1 L 2.1 -39.8 L 5.5 -57.2 L 5.5 -57.2 Q 6.1 -60.1 6.6 -63.4 L 6.6 -63.4 L 6.6 -63.4 Q 7.1 -66.7 7.1 -67.2 L 7.1 -67.2 L 7.1 -67.2 Q 7.1 -70.1 5 -70.1 L 5 -70.1 L 5 -70.1 Q 3.5 -70.1 1.9 -67.9 L 1.9 -67.9 L 1.9 -67.9 Q 0.3 -65.8 -0.6 -61.3 L -0.6 -61.3 L -4.5 -41.1 L -17.1 -39.8 L -10.4 -73.8 L 0 -75 L -1.1 -68.6 L -1.1 -68.6 Q 0.6 -72 3.7 -73.5 L 3.7 -73.5 L 3.7 -73.5 Q 6.8 -75 11.6 -75 L 11.6 -75 L 11.6 -75 Q 14.3 -75 16.1 -73.7 L 16.1 -73.7 L 16.1 -73.7 Q 17.9 -72.3 18.5 -70.2 L 18.5 -70.2 L 18.5 -70.2 Q 19.6 -72.4 22.3 -73.7 L 22.3 -73.7 L 22.3 -73.7 Q 25.1 -75 28.5 -75 L 28.5 -75 L 28.5 -75 Q 32 -75 33.7 -74.3 L 33.7 -74.3 L 33.7 -74.3 Q 35.4 -73.6 36.4 -72.3 L 36.4 -72.3 L 36.4 -72.3 Q 38.1 -70.1 38.1 -66 L 38.1 -66 L 38.1 -66 Q 38.1 -62 36.4 -53.6 L 36.4 -53.6 L 36.4 -53.6 Q 35.5 -49.5 35.5 -48 L 35.5 -48 L 35.5 -48 Q 35.5 -46.5 36.4 -45.6 L 36.4 -45.6 L 36.4 -45.6 Q 37.2 -44.7 38.5 -44.6 L 38.5 -44.6 L 38.5 -44.6 Q 37.9 -42.4 35.7 -41.1 L 35.7 -41.1 L 35.7 -41.1 Q 33.4 -39.8 30.6 -39.8 Z M 46.2 -43 L 46.2 -43 L 46.2 -43 Q 44.7 -44.7 44 -47.3 L 44 -47.3 L 44 -47.3 Q 43.4 -49.9 43.4 -54.2 L 43.4 -54.2 L 43.4 -54.2 Q 43.4 -58.5 44.8 -62.4 L 44.8 -62.4 L 44.8 -62.4 Q 46.3 -66.3 49 -69.1 L 49 -69.1 L 49 -69.1 Q 54.5 -75 63.6 -75 L 63.6 -75 L 63.6 -75 Q 66.9 -75 69.2 -73.9 L 69.2 -73.9 L 80.2 -75 L 75.4 -50.1 L 75.4 -50.1 Q 75.2 -49.3 75.2 -47.9 L 75.2 -47.9 L 75.2 -47.9 Q 75.2 -46.5 76.1 -45.6 L 76.1 -45.6 L 76.1 -45.6 Q 77 -44.7 78.2 -44.6 L 78.2 -44.6 L 78.2 -44.6 Q 77.6 -42.4 75.3 -41.1 L 75.3 -41.1 L 75.3 -41.1 Q 72.9 -39.8 70.3 -39.8 L 70.3 -39.8 L 70.3 -39.8 Q 67.7 -39.8 65.9 -40.8 L 65.9 -40.8 L 65.9 -40.8 Q 64.2 -41.8 63.7 -43.5 L 63.7 -43.5 L 63.7 -43.5 Q 62.6 -41.9 60.5 -40.9 L 60.5 -40.9 L 60.5 -40.9 Q 58.3 -39.8 55.4 -39.8 L 55.4 -39.8 L 55.4 -39.8 Q 52.5 -39.8 50.1 -40.6 L 50.1 -40.6 L 50.1 -40.6 Q 47.7 -41.4 46.2 -43 Z M 59.7 -69 L 59.7 -69 L 59.7 -69 Q 59 -67.9 58.3 -65.9 L 58.3 -65.9 L 58.3 -65.9 Q 57.7 -64 56.6 -58.7 L 56.6 -58.7 L 56.6 -58.7 Q 55.6 -53.5 55.6 -49.8 L 55.6 -49.8 L 55.6 -49.8 Q 55.6 -46.1 56.2 -45 L 56.2 -45 L 56.2 -45 Q 56.7 -43.9 57.8 -43.9 L 57.8 -43.9 L 57.8 -43.9 Q 59.8 -43.9 61.3 -45.9 L 61.3 -45.9 L 61.3 -45.9 Q 62.8 -47.8 63.4 -51.3 L 63.4 -51.3 L 66.8 -70 L 66.8 -70 Q 65.4 -71.2 63.9 -71.2 L 63.9 -71.2 L 63.9 -71.2 Q 62.3 -71.2 61.4 -70.7 L 61.4 -70.7 L 61.4 -70.7 Q 60.5 -70.2 59.7 -69 Z M 87.9 -67.9 L 87.9 -67.9 L 87.9 -67.9 Q 90.1 -70.9 93.4 -73 L 93.4 -73 L 93.4 -73 Q 96.7 -75 100.7 -75 L 100.7 -75 L 100.7 -75 Q 104.7 -75 106.7 -73.8 L 106.7 -73.8 L 119.2 -75 L 114.9 -50.5 L 114.9 -50.5 Q 112.6 -37.9 107.9 -33 L 107.9 -33 L 107.9 -33 Q 103.3 -28.3 94.5 -28.3 L 94.5 -28.3 L 94.5 -28.3 Q 87.8 -28.3 83.9 -30.4 L 83.9 -30.4 L 83.9 -30.4 Q 80.1 -32.5 80.1 -36.1 L 80.1 -36.1 L 80.1 -36.1 Q 80.1 -38.7 82.1 -40.2 L 82.1 -40.2 L 82.1 -40.2 Q 84.1 -41.7 87.1 -41.7 L 87.1 -41.7 L 87.1 -41.7 Q 89.8 -41.7 91.9 -40.5 L 91.9 -40.5 L 91.9 -40.5 Q 93.1 -39.8 93.7 -38.9 L 93.7 -38.9 L 93.7 -38.9 Q 92.2 -37.7 92.2 -35.5 L 92.2 -35.5 L 92.2 -35.5 Q 92.2 -32.8 94.8 -32.8 L 94.8 -32.8 L 94.8 -32.8 Q 99 -32.8 101.5 -42.9 L 101.5 -42.9 L 101.5 -42.9 Q 102.2 -45.7 102.8 -48.4 L 102.8 -48.4 L 102.8 -48.4 Q 99.9 -44.9 93.3 -44.9 L 93.3 -44.9 L 93.3 -44.9 Q 88.8 -44.9 86.2 -47.1 L 86.2 -47.1 L 86.2 -47.1 Q 83.6 -49.2 83.6 -54.4 L 83.6 -54.4 L 83.6 -54.4 Q 83.6 -57.6 84.6 -61.2 L 84.6 -61.2 L 84.6 -61.2 Q 85.7 -64.8 87.9 -67.9 Z M 96.2 -54.2 L 96.2 -54.2 L 96.2 -54.2 Q 96.2 -49.8 98.5 -49.8 L 98.5 -49.8 L 98.5 -49.8 Q 100 -49.8 101.5 -51.5 L 101.5 -51.5 L 101.5 -51.5 Q 102.6 -52.8 103.1 -54.8 L 103.1 -54.8 L 106.3 -71.3 L 106.3 -71.3 Q 106 -71.3 105.7 -71.5 L 105.7 -71.5 L 105.7 -71.5 Q 105.1 -71.7 104.2 -71.7 L 104.2 -71.7 L 104.2 -71.7 Q 100.3 -71.7 98 -65.3 L 98 -65.3 L 98 -65.3 Q 96.2 -60.3 96.2 -54.2 Z M 147.6 -51.9 L 147.6 -51.9 L 147.6 -51.9 Q 149.2 -50.8 149.2 -48.4 L 149.2 -48.4 L 149.2 -48.4 Q 149.2 -46 148 -44.5 L 148 -44.5 L 148 -44.5 Q 146.8 -43 144.8 -41.9 L 144.8 -41.9 L 144.8 -41.9 Q 140.7 -39.8 136.3 -39.8 L 136.3 -39.8 L 136.3 -39.8 Q 131.9 -39.8 129.3 -40.8 L 129.3 -40.8 L 129.3 -40.8 Q 126.7 -41.8 125 -43.5 L 125 -43.5 L 125 -43.5 Q 121.6 -46.9 121.6 -53.1 L 121.6 -53.1 L 121.6 -53.1 Q 121.6 -62.8 126.8 -68.7 L 126.8 -68.7 L 126.8 -68.7 Q 132.5 -75 142.2 -75 L 142.2 -75 L 142.2 -75 Q 148.3 -75 151.3 -72.5 L 151.3 -72.5 L 151.3 -72.5 Q 153.6 -70.6 153.6 -67.4 L 153.6 -67.4 L 153.6 -67.4 Q 153.6 -56.2 134.1 -56.2 L 134.1 -56.2 L 134.1 -56.2 Q 133.9 -54.5 133.9 -53.1 L 133.9 -53.1 L 133.9 -53.1 Q 133.9 -50.1 135.2 -49 L 135.2 -49 L 135.2 -49 Q 136.5 -47.9 138.9 -47.9 L 138.9 -47.9 L 138.9 -47.9 Q 141.3 -47.9 143.9 -49 L 143.9 -49 L 143.9 -49 Q 146.5 -50.1 147.6 -51.9 Z M 134.6 -58.9 L 134.6 -58.9 L 134.6 -58.9 Q 139.1 -58.9 141.7 -61.7 L 141.7 -61.7 L 141.7 -61.7 Q 144.4 -64.4 144.4 -68.7 L 144.4 -68.7 L 144.4 -68.7 Q 144.4 -70.2 143.8 -71 L 143.8 -71 L 143.8 -71 Q 143.3 -71.8 142.2 -71.8 L 142.2 -71.8 L 142.2 -71.8 Q 141.1 -71.8 140.2 -71.4 L 140.2 -71.4 L 140.2 -71.4 Q 139.2 -70.9 138.3 -69.5 L 138.3 -69.5 L 138.3 -69.5 Q 135.9 -66.3 134.6 -58.9 Z M 174.9 -63.6 L 174.9 -63.6 L 174.9 -63.6 Q 175.8 -65.9 175.8 -68 L 175.8 -68 L 175.8 -68 Q 175.8 -71.8 172.7 -71.8 L 172.7 -71.8 L 172.7 -71.8 Q 171.1 -71.8 169.8 -70.3 L 169.8 -70.3 L 169.8 -70.3 Q 168.5 -68.9 168.5 -67.1 L 168.5 -67.1 L 168.5 -67.1 Q 168.5 -65.8 169.5 -64.8 L 169.5 -64.8 L 169.5 -64.8 Q 171 -63.4 174.8 -61.1 L 174.8 -61.1 L 174.8 -61.1 Q 178.5 -58.8 180 -56.9 L 180 -56.9 L 180 -56.9 Q 181.4 -55 181.4 -52.4 L 181.4 -52.4 L 181.4 -52.4 Q 181.4 -49.8 180.2 -47.5 L 180.2 -47.5 L 180.2 -47.5 Q 178.9 -45.1 176.7 -43.4 L 176.7 -43.4 L 176.7 -43.4 Q 171.9 -39.8 164.2 -39.8 L 164.2 -39.8 L 164.2 -39.8 Q 160 -39.8 156.8 -42 L 156.8 -42 L 156.8 -42 Q 153.6 -44.1 153.6 -46.6 L 153.6 -46.6 L 153.6 -46.6 Q 153.6 -49.1 155.5 -50.6 L 155.5 -50.6 L 155.5 -50.6 Q 157.3 -52.1 160 -52.1 L 160 -52.1 L 160 -52.1 Q 162.7 -52.1 164.3 -51 L 164.3 -51 L 164.3 -51 Q 163.5 -48.9 163.5 -47.5 L 163.5 -47.5 L 163.5 -47.5 Q 163.5 -43.3 167.1 -43.3 L 167.1 -43.3 L 167.1 -43.3 Q 168.6 -43.3 169.6 -44.3 L 169.6 -44.3 L 169.6 -44.3 Q 170.7 -45.2 170.7 -46.9 L 170.7 -46.9 L 170.7 -46.9 Q 170.7 -50.1 165.2 -53.6 L 165.2 -53.6 L 165.2 -53.6 Q 160.7 -56.5 159.7 -57.7 L 159.7 -57.7 L 159.7 -57.7 Q 157.9 -59.7 157.9 -62.3 L 157.9 -62.3 L 157.9 -62.3 Q 157.9 -64.9 159.1 -67.3 L 159.1 -67.3 L 159.1 -67.3 Q 160.4 -69.7 162.6 -71.5 L 162.6 -71.5 L 162.6 -71.5 Q 167.3 -75 175.4 -75 L 175.4 -75 L 175.4 -75 Q 179.6 -75 182 -73.4 L 182 -73.4 L 182 -73.4 Q 184.5 -71.7 184.5 -68.9 L 184.5 -68.9 L 184.5 -68.9 Q 184.5 -66.1 182.8 -64.5 L 182.8 -64.5 L 182.8 -64.5 Q 181.1 -62.9 178 -62.9 L 178 -62.9 L 178 -62.9 Q 175.9 -62.9 174.9 -63.6 Z M 226 -61.7 L 238.9 -62.9 L 238.9 -62.9 Q 234.3 -52.8 234.3 -41.1 L 234.3 -41.1 L 234.3 -41.1 Q 232.5 -39.8 230 -39.8 L 230 -39.8 L 230 -39.8 Q 227.5 -39.8 225.9 -41 L 225.9 -41 L 225.9 -41 Q 224.3 -42.2 224 -43.4 L 224 -43.4 L 224 -43.4 Q 222.4 -41.8 219.8 -40.8 L 219.8 -40.8 L 219.8 -40.8 Q 217.2 -39.8 214.4 -39.8 L 214.4 -39.8 L 214.4 -39.8 Q 211.7 -39.8 209.3 -40.7 L 209.3 -40.7 L 209.3 -40.7 Q 206.9 -41.6 205 -43.6 L 205 -43.6 L 205 -43.6 Q 200.9 -48 200.9 -56.2 L 200.9 -56.2 L 200.9 -56.2 Q 200.9 -69 207.8 -76.7 L 207.8 -76.7 L 207.8 -76.7 Q 214.8 -84.6 227.3 -84.6 L 227.3 -84.6 L 227.3 -84.6 Q 235.9 -84.6 239 -80.2 L 239 -80.2 L 239 -80.2 Q 240 -78.7 240 -77.1 L 240 -77.1 L 240 -77.1 Q 240 -75.4 239.2 -73.9 L 239.2 -73.9 L 239.2 -73.9 Q 238.5 -72.5 237.3 -71.3 L 237.3 -71.3 L 237.3 -71.3 Q 234.6 -68.8 231.2 -68.8 L 231.2 -68.8 L 231.2 -68.8 Q 229.9 -68.8 228.6 -69.2 L 228.6 -69.2 L 228.6 -69.2 Q 228.8 -71.1 228.8 -73.4 L 228.8 -73.4 L 228.8 -73.4 Q 228.8 -75.6 228.7 -76.6 L 228.7 -76.6 L 228.7 -76.6 Q 228.5 -77.7 228.1 -78.5 L 228.1 -78.5 L 228.1 -78.5 Q 227.3 -80.2 225.5 -80.2 L 225.5 -80.2 L 225.5 -80.2 Q 223.7 -80.2 221.6 -78.3 L 221.6 -78.3 L 221.6 -78.3 Q 219.6 -76.3 218 -73.1 L 218 -73.1 L 218 -73.1 Q 214.5 -65.9 214.5 -57.3 L 214.5 -57.3 L 214.5 -57.3 Q 214.5 -53.3 216 -50.5 L 216 -50.5 L 216 -50.5 Q 217.7 -47.5 220.6 -47.5 L 220.6 -47.5 L 220.6 -47.5 Q 221.7 -47.5 222.6 -48 L 222.6 -48 L 222.6 -48 Q 223.5 -48.5 223.9 -48.9 L 223.9 -48.9 L 226 -61.7 Z M 244.8 -43 L 244.8 -43 L 244.8 -43 Q 243.3 -44.7 242.6 -47.3 L 242.6 -47.3 L 242.6 -47.3 Q 242 -49.9 242 -54.2 L 242 -54.2 L 242 -54.2 Q 242 -58.5 243.4 -62.4 L 243.4 -62.4 L 243.4 -62.4 Q 244.9 -66.3 247.6 -69.1 L 247.6 -69.1 L 247.6 -69.1 Q 253.1 -75 262.2 -75 L 262.2 -75 L 262.2 -75 Q 265.4 -75 267.8 -73.9 L 267.8 -73.9 L 278.8 -75 L 274 -50.1 L 274 -50.1 Q 273.8 -49.3 273.8 -47.9 L 273.8 -47.9 L 273.8 -47.9 Q 273.8 -46.5 274.7 -45.6 L 274.7 -45.6 L 274.7 -45.6 Q 275.6 -44.7 276.8 -44.6 L 276.8 -44.6 L 276.8 -44.6 Q 276.2 -42.4 273.9 -41.1 L 273.9 -41.1 L 273.9 -41.1 Q 271.5 -39.8 268.9 -39.8 L 268.9 -39.8 L 268.9 -39.8 Q 266.3 -39.8 264.5 -40.8 L 264.5 -40.8 L 264.5 -40.8 Q 262.8 -41.8 262.2 -43.5 L 262.2 -43.5 L 262.2 -43.5 Q 261.2 -41.9 259 -40.9 L 259 -40.9 L 259 -40.9 Q 256.9 -39.8 254 -39.8 L 254 -39.8 L 254 -39.8 Q 251 -39.8 248.7 -40.6 L 248.7 -40.6 L 248.7 -40.6 Q 246.3 -41.4 244.8 -43 Z M 258.3 -69 L 258.3 -69 L 258.3 -69 Q 257.6 -67.9 256.9 -65.9 L 256.9 -65.9 L 256.9 -65.9 Q 256.3 -64 255.2 -58.7 L 255.2 -58.7 L 255.2 -58.7 Q 254.2 -53.5 254.2 -49.8 L 254.2 -49.8 L 254.2 -49.8 Q 254.2 -46.1 254.8 -45 L 254.8 -45 L 254.8 -45 Q 255.3 -43.9 256.4 -43.9 L 256.4 -43.9 L 256.4 -43.9 Q 258.4 -43.9 259.9 -45.9 L 259.9 -45.9 L 259.9 -45.9 Q 261.4 -47.8 262 -51.3 L 262 -51.3 L 265.4 -70 L 265.4 -70 Q 264 -71.2 262.5 -71.2 L 262.5 -71.2 L 262.5 -71.2 Q 260.9 -71.2 260 -70.7 L 260 -70.7 L 260 -70.7 Q 259 -70.2 258.3 -69 Z M 297.5 -44.6 L 297.5 -44.6 L 297.5 -44.6 Q 295.5 -39.8 289.2 -39.8 L 289.2 -39.8 L 289.2 -39.8 Q 286 -39.8 283.9 -42.1 L 283.9 -42.1 L 283.9 -42.1 Q 282.3 -43.9 282.3 -46 L 282.3 -46 L 282.3 -46 Q 282.3 -50.8 284.5 -61.3 L 284.5 -61.3 L 289.2 -85.9 L 302.2 -87.2 L 296 -54.8 L 296 -54.8 Q 294.9 -50.1 294.9 -48.4 L 294.9 -48.4 L 294.9 -48.4 Q 294.9 -44.8 297.5 -44.6 Z M 318.2 -44.6 L 318.2 -44.6 L 318.2 -44.6 Q 316.3 -39.8 309.9 -39.8 L 309.9 -39.8 L 309.9 -39.8 Q 306.7 -39.8 304.7 -42.1 L 304.7 -42.1 L 304.7 -42.1 Q 303 -43.9 303 -46 L 303 -46 L 303 -46 Q 303 -50.8 305.3 -61.3 L 305.3 -61.3 L 309.9 -85.9 L 322.9 -87.2 L 316.7 -54.8 L 316.7 -54.8 Q 315.6 -50.1 315.6 -48.4 L 315.6 -48.4 L 315.6 -48.4 Q 315.6 -44.8 318.2 -44.6 Z M 349.6 -51.9 L 349.6 -51.9 L 349.6 -51.9 Q 351.2 -50.8 351.2 -48.4 L 351.2 -48.4 L 351.2 -48.4 Q 351.2 -46 350 -44.5 L 350 -44.5 L 350 -44.5 Q 348.8 -43 346.8 -41.9 L 346.8 -41.9 L 346.8 -41.9 Q 342.7 -39.8 338.3 -39.8 L 338.3 -39.8 L 338.3 -39.8 Q 333.9 -39.8 331.3 -40.8 L 331.3 -40.8 L 331.3 -40.8 Q 328.7 -41.8 326.9 -43.5 L 326.9 -43.5 L 326.9 -43.5 Q 323.6 -46.9 323.6 -53.1 L 323.6 -53.1 L 323.6 -53.1 Q 323.6 -62.8 328.8 -68.7 L 328.8 -68.7 L 328.8 -68.7 Q 334.4 -75 344.2 -75 L 344.2 -75 L 344.2 -75 Q 350.3 -75 353.3 -72.5 L 353.3 -72.5 L 353.3 -72.5 Q 355.6 -70.6 355.6 -67.4 L 355.6 -67.4 L 355.6 -67.4 Q 355.6 -56.2 336.1 -56.2 L 336.1 -56.2 L 336.1 -56.2 Q 335.8 -54.5 335.8 -53.1 L 335.8 -53.1 L 335.8 -53.1 Q 335.8 -50.1 337.2 -49 L 337.2 -49 L 337.2 -49 Q 338.5 -47.9 340.9 -47.9 L 340.9 -47.9 L 340.9 -47.9 Q 343.3 -47.9 345.9 -49 L 345.9 -49 L 345.9 -49 Q 348.5 -50.1 349.6 -51.9 Z M 336.5 -58.9 L 336.5 -58.9 L 336.5 -58.9 Q 341.1 -58.9 343.7 -61.7 L 343.7 -61.7 L 343.7 -61.7 Q 346.3 -64.4 346.3 -68.7 L 346.3 -68.7 L 346.3 -68.7 Q 346.3 -70.2 345.8 -71 L 345.8 -71 L 345.8 -71 Q 345.3 -71.8 344.2 -71.8 L 344.2 -71.8 L 344.2 -71.8 Q 343.1 -71.8 342.1 -71.4 L 342.1 -71.4 L 342.1 -71.4 Q 341.2 -70.9 340.3 -69.5 L 340.3 -69.5 L 340.3 -69.5 Q 337.9 -66.3 336.5 -58.9 Z M 377.8 -59.1 L 377.8 -59.1 L 377.8 -59.1 Q 380.1 -63.2 380.1 -67.4 L 380.1 -67.4 L 380.1 -67.4 Q 380.1 -70.1 378.1 -70.1 L 378.1 -70.1 L 378.1 -70.1 Q 376.5 -70.1 374.9 -67.5 L 374.9 -67.5 L 374.9 -67.5 Q 373.3 -64.9 372.8 -61.5 L 372.8 -61.5 L 369.4 -41.1 L 356.2 -39.8 L 362.7 -73.8 L 373.3 -75 L 372.1 -68.6 L 372.1 -68.6 Q 375.3 -75 382.3 -75 L 382.3 -75 L 382.3 -75 Q 386 -75 388 -73.1 L 388 -73.1 L 388 -73.1 Q 390.1 -71.2 390.1 -67.3 L 390.1 -67.3 L 390.1 -67.3 Q 390.1 -63.3 387.5 -60.8 L 387.5 -60.8 L 387.5 -60.8 Q 384.9 -58.3 380.5 -58.3 L 380.5 -58.3 L 380.5 -58.3 Q 378.5 -58.3 377.8 -59.1 Z M 411.4 -48.3 L 411.4 -48.3 L 411.4 -48.3 Q 408.1 -44.9 402 -44.9 L 402 -44.9 L 402 -44.9 Q 394.4 -44.9 392.8 -50.5 L 392.8 -50.5 L 392.8 -50.5 Q 392.3 -52.1 392.3 -54 L 392.3 -54 L 392.3 -54 Q 392.3 -55.8 392.7 -57.8 L 392.7 -57.8 L 395.7 -73.8 L 408.7 -75 L 405.2 -56.4 L 405.2 -56.4 Q 405 -55.6 404.8 -54.7 L 404.8 -54.7 L 404.8 -54.7 Q 404.6 -53.8 404.6 -52.9 L 404.6 -52.9 L 404.6 -52.9 Q 404.6 -51.9 405 -51.3 L 405 -51.3 L 405 -51.3 Q 405.3 -50.7 405.7 -50.3 L 405.7 -50.3 L 405.7 -50.3 Q 406.5 -49.8 407.9 -49.8 L 407.9 -49.8 L 407.9 -49.8 Q 409.3 -49.8 410.4 -51.5 L 410.4 -51.5 L 410.4 -51.5 Q 411.6 -53.1 412.2 -56 L 412.2 -56 L 415.7 -73.8 L 428.3 -75 L 423.5 -49.9 L 423.5 -49.9 Q 421.2 -37.6 416.3 -32.7 L 416.3 -32.7 L 416.3 -32.7 Q 413.8 -30.2 410.6 -29.2 L 410.6 -29.2 L 410.6 -29.2 Q 407.3 -28.3 403.2 -28.3 L 403.2 -28.3 L 403.2 -28.3 Q 396.5 -28.3 392.6 -30.4 L 392.6 -30.4 L 392.6 -30.4 Q 388.8 -32.5 388.8 -36 L 388.8 -36 L 388.8 -36 Q 388.8 -38.6 390.8 -40.1 L 390.8 -40.1 L 390.8 -40.1 Q 392.7 -41.6 395.8 -41.6 L 395.8 -41.6 L 395.8 -41.6 Q 398.5 -41.6 400.5 -40.5 L 400.5 -40.5 L 400.5 -40.5 Q 401.8 -39.8 402.3 -38.9 L 402.3 -38.9 L 402.3 -38.9 Q 400.9 -37.6 400.9 -35.5 L 400.9 -35.5 L 400.9 -35.5 Q 400.9 -32.7 403.4 -32.7 L 403.4 -32.7 L 403.4 -32.7 Q 407.7 -32.7 410.1 -42.4 L 410.1 -42.4 L 410.1 -42.4 Q 410.8 -45.3 411.4 -48.3 Z" fill="url(#editing-gradient-gradient)"></path></g></g><style>text {
  font-size: 64px;
  font-family: Arial Black;
  dominant-baseline: central;
  text-anchor: middle;
}</style></svg>